<?xml version="1.0" standalone="no"?>
<!DOCTYPE svg PUBLIC "-//W3C//DTD SVG 20010904//EN"
 "http://www.w3.org/TR/2001/REC-SVG-20010904/DTD/svg10.dtd">
<svg version="1.0" xmlns="http://www.w3.org/2000/svg"
 width="1268.000000pt" height="1268.000000pt" viewBox="0 0 1268.000000 1268.000000"
 preserveAspectRatio="xMidYMid meet">
<metadata>
Created by potrace 1.14, written by Peter Selinger 2001-2017
</metadata>
<g transform="translate(0.000000,1268.000000) scale(0.100000,-0.100000)"
fill="#000000" stroke="none">
<path d="M1487 9404 c-1 -1 -31 -5 -67 -8 -159 -16 -301 -56 -449 -128 -84
-40 -221 -128 -275 -177 -70 -64 -154 -150 -191 -196 -22 -28 -42 -52 -45 -55
-15 -15 -91 -133 -116 -180 -16 -30 -31 -57 -34 -60 -10 -9 -68 -142 -103
-235 -28 -75 -40 -109 -52 -155 0 -3 -4 -14 -8 -25 -3 -11 -8 -31 -11 -45 -3
-14 -12 -57 -20 -96 -9 -39 -18 -88 -21 -110 -4 -21 -8 -50 -10 -64 -23 -135
-23 -488 0 -600 3 -14 8 -38 11 -55 2 -16 10 -48 16 -70 6 -22 12 -42 12 -45
4 -29 71 -162 115 -230 119 -182 296 -312 511 -374 142 -41 292 -48 430 -21
23 4 35 8 95 31 11 4 25 8 32 10 14 3 126 69 166 98 40 29 176 166 195 196 9
14 22 32 29 40 40 45 156 254 146 264 -3 3 -1 6 5 6 7 0 12 7 12 15 0 8 4 23
9 33 27 52 82 225 97 307 10 50 11 54 14 58 1 1 3 11 5 22 1 11 6 43 10 70 13
86 14 107 15 235 0 114 -3 158 -15 200 -2 8 -7 30 -10 48 -20 120 -99 267
-186 348 -109 100 -233 147 -389 147 -173 -1 -268 -41 -390 -164 -85 -86 -85
-86 -125 -154 -57 -98 -91 -178 -131 -310 -25 -81 -30 -103 -40 -165 -3 -19
-7 -43 -10 -52 -22 -76 -23 -363 -1 -385 3 -2 33 3 68 12 35 10 75 19 89 21
14 3 33 7 42 10 10 3 28 7 40 9 13 3 43 11 68 18 44 13 45 14 46 57 4 128 10
200 17 200 4 0 6 3 5 8 -10 38 46 223 102 337 67 134 129 188 216 188 103 0
173 -59 211 -178 18 -58 26 -295 12 -366 -5 -24 -11 -61 -14 -82 -3 -21 -17
-75 -31 -120 -13 -45 -26 -91 -29 -101 -2 -11 -15 -45 -27 -75 -86 -212 -218
-376 -356 -443 -67 -33 -78 -35 -160 -33 -137 4 -215 27 -319 94 -136 88 -231
263 -248 458 -17 195 1 438 49 648 103 452 382 807 741 944 113 43 358 64 454
39 209 -54 357 -140 506 -293 69 -70 148 -162 154 -179 2 -6 9 -16 16 -22 6
-6 30 -42 54 -80 24 -38 53 -82 63 -97 11 -16 21 -34 22 -40 1 -7 6 -19 11
-27 5 -8 20 -36 32 -62 22 -48 38 -57 71 -38 9 5 64 28 122 51 147 57 170 68
170 83 0 27 -110 230 -189 350 -25 38 -50 76 -56 85 -5 9 -13 18 -16 21 -4 3
-24 28 -44 55 -77 101 -216 240 -310 310 -22 16 -46 35 -53 42 -7 7 -20 13
-28 13 -8 0 -14 4 -14 9 0 5 -9 13 -20 16 -11 3 -26 12 -32 18 -19 17 -113 62
-193 92 -39 14 -77 29 -85 32 -19 8 -26 9 -74 17 -21 3 -41 8 -45 10 -15 9
-255 27 -264 20z"/>
<path d="M11046 9402 c-2 -1 -27 -5 -57 -7 -30 -3 -63 -7 -74 -9 -269 -54
-488 -177 -705 -396 -69 -70 -137 -142 -153 -161 -39 -49 -170 -246 -198 -299
-13 -25 -26 -47 -29 -50 -12 -12 -80 -159 -80 -174 0 -9 6 -16 13 -16 7 0 80
-27 162 -60 82 -33 154 -60 159 -60 6 0 30 40 53 88 58 117 84 161 161 267 91
126 232 275 295 313 15 9 27 20 27 24 0 4 5 8 11 8 6 0 25 11 42 23 62 46 202
106 287 122 69 14 255 14 325 0 128 -25 253 -76 360 -149 69 -46 193 -166 254
-245 152 -197 271 -503 306 -791 26 -209 22 -456 -9 -565 -2 -5 -6 -23 -11
-40 -15 -58 -74 -161 -121 -214 -56 -62 -168 -136 -224 -147 -3 0 -12 -3 -20
-6 -35 -14 -99 -25 -157 -27 -71 -3 -142 16 -210 56 -47 27 -183 156 -183 173
0 5 -7 15 -14 23 -31 30 -116 206 -149 307 -60 181 -80 296 -81 460 0 126 3
154 23 214 40 118 104 169 212 169 75 0 130 -44 191 -151 42 -72 89 -190 102
-258 3 -10 9 -40 15 -66 16 -68 24 -143 25 -228 l1 -74 35 -9 c19 -4 52 -12
73 -18 20 -5 54 -13 75 -18 20 -5 47 -12 60 -15 12 -3 32 -9 45 -12 59 -15 71
-11 77 27 8 46 5 240 -5 304 -4 28 -14 79 -22 115 -8 36 -17 76 -20 90 -8 40
-9 43 -32 110 -7 19 -14 40 -15 45 -3 9 -10 27 -38 93 -6 15 -12 29 -12 32 -2
5 -12 22 -74 120 -136 215 -349 315 -592 277 -206 -31 -383 -192 -454 -413
-43 -131 -55 -311 -35 -524 1 -8 5 -37 10 -65 5 -27 12 -63 15 -80 24 -146
123 -416 191 -527 13 -21 23 -40 23 -43 0 -16 114 -165 177 -231 125 -129 307
-229 458 -249 44 -6 173 -6 220 0 95 11 241 52 300 83 17 9 33 15 38 14 4 -1
7 2 7 8 0 5 5 10 11 10 21 0 144 94 207 158 64 65 122 142 122 161 0 6 4 11 8
11 8 0 20 24 72 145 16 37 43 134 54 195 2 14 5 25 6 25 5 0 13 164 13 275 0
145 -7 257 -23 360 -6 36 -13 78 -15 94 -2 15 -7 37 -11 48 -3 11 -7 30 -9 41
-6 53 -81 295 -96 312 -5 5 -9 15 -9 23 0 18 -107 232 -127 255 -9 9 -13 17
-10 17 9 0 -84 134 -95 138 -4 2 -8 8 -8 13 0 13 -33 50 -125 143 -98 99 -120
117 -215 183 -119 81 -309 165 -425 189 -94 19 -128 24 -180 30 -64 7 -194 11
-199 6z"/>
<path d="M3966 7328 c-89 -12 -176 -57 -245 -127 -70 -71 -109 -134 -171 -276
-7 -17 -21 -57 -25 -75 -5 -19 -37 -128 -42 -140 -3 -8 -7 -19 -8 -25 -2 -5
-15 -66 -31 -135 -24 -105 -28 -148 -29 -265 0 -145 4 -185 28 -270 38 -136
120 -235 204 -249 7 -1 15 -4 18 -7 11 -11 118 2 177 22 227 76 430 377 539
799 40 153 44 183 44 335 0 113 -3 138 -24 192 -62 164 -228 248 -435 221z"/>
<path d="M8528 7323 c-79 -14 -134 -41 -187 -89 -42 -38 -90 -125 -100 -183
-9 -51 -7 -258 2 -306 5 -22 10 -55 13 -74 2 -19 7 -38 10 -43 3 -5 8 -24 11
-41 8 -52 78 -256 117 -339 39 -84 114 -211 127 -216 5 -2 9 -8 9 -13 0 -10
35 -52 97 -114 35 -37 155 -120 172 -120 3 0 11 -3 16 -6 35 -22 149 -27 214
-9 70 19 149 114 182 220 53 169 48 430 -11 630 -5 19 -12 46 -14 60 -2 14 -9
38 -15 54 -7 16 -9 31 -6 34 2 3 1 10 -4 16 -8 9 -15 30 -36 106 -1 3 -7 19
-14 35 -8 17 -18 41 -24 55 -31 71 -94 166 -145 217 -114 117 -247 157 -414
126z"/>
<path d="M5455 5440 c-8 -14 5 -114 31 -229 18 -84 125 -261 196 -326 51 -48
115 -95 127 -95 6 0 11 -4 11 -9 0 -5 8 -11 18 -14 9 -3 44 -17 77 -31 33 -14
66 -26 73 -26 6 0 12 -5 12 -11 0 -18 -134 -209 -152 -217 -5 -2 -8 -10 -8
-17 0 -7 -3 -15 -8 -17 -4 -1 -27 -28 -50 -58 -93 -118 -265 -295 -379 -391
-48 -39 -156 -120 -176 -130 -12 -7 -24 -15 -27 -18 -27 -33 -301 -158 -383
-175 -12 -3 -33 -8 -47 -11 -14 -3 -38 -9 -55 -11 -16 -3 -48 -9 -70 -13 -101
-18 -373 -1 -545 34 -14 3 -37 7 -52 10 -106 20 -347 117 -436 176 -24 16 -45
29 -48 29 -2 0 -35 23 -72 51 -88 67 -190 173 -242 248 -22 34 -42 61 -45 61
-3 0 -245 -113 -303 -142 -16 -9 -21 -17 -16 -32 16 -52 141 -215 234 -305 93
-90 282 -231 331 -246 10 -4 19 -11 19 -16 0 -5 5 -9 10 -9 6 0 52 -20 103
-44 51 -25 121 -54 157 -66 36 -11 72 -24 80 -27 23 -9 57 -19 143 -39 9 -2
27 -6 40 -10 25 -6 36 -8 132 -23 113 -19 191 -24 350 -25 219 -1 311 13 490
70 44 15 85 27 90 28 23 4 217 101 295 148 69 42 218 146 240 168 3 3 34 29
70 59 126 106 298 287 421 443 79 101 88 112 151 202 l42 59 21 -28 c11 -16
43 -59 70 -96 28 -37 59 -80 70 -95 82 -113 311 -360 440 -475 59 -52 189
-149 280 -208 107 -70 315 -174 373 -187 8 -1 21 -6 30 -10 16 -7 25 -9 55
-17 6 -2 32 -9 57 -16 25 -7 54 -15 65 -17 11 -2 31 -6 45 -9 165 -34 528 -23
735 22 39 8 84 17 100 20 77 13 312 102 424 160 208 107 368 233 502 393 83
101 159 220 139 220 -4 0 -78 34 -164 75 -86 41 -158 75 -160 75 -3 0 -22 -26
-43 -57 -20 -31 -76 -96 -124 -143 -194 -195 -469 -331 -779 -385 -189 -33
-450 -38 -580 -10 -14 3 -34 7 -45 9 -24 5 -142 43 -170 55 -72 31 -201 96
-203 103 -2 4 -8 8 -14 8 -12 0 -102 61 -106 72 -2 4 -10 8 -18 8 -8 0 -14 5
-14 10 0 6 -6 10 -14 10 -8 0 -21 8 -28 18 -7 9 -26 26 -43 37 -16 10 -91 80
-165 154 -138 139 -165 168 -234 256 -22 28 -42 52 -46 55 -3 3 -17 21 -30 40
-13 19 -27 37 -30 40 -3 3 -9 12 -15 21 -5 9 -29 44 -53 77 l-42 62 27 7 c16
4 31 7 35 8 3 0 10 3 14 8 4 4 13 7 20 7 44 0 210 100 281 169 46 45 123 144
123 159 0 5 7 15 15 22 9 7 14 15 11 17 -2 3 6 28 19 56 13 29 26 64 29 79 2
15 7 32 10 37 7 10 19 103 20 151 l1 35 -55 -1 c-319 -9 -310 -8 -317 -29 -4
-11 -6 -23 -5 -28 1 -4 -3 -28 -10 -54 -21 -86 -79 -168 -152 -218 -147 -100
-468 -106 -629 -12 -91 54 -163 167 -174 275 -4 38 -10 52 -22 53 -111 9 -352
15 -356 9z"/>
</g>
</svg>
